<svg width="18" height="18" viewBox="0 0 18 18" fill="none" xmlns="http://www.w3.org/2000/svg">
<g clip-path="url(#clip0_619_8115)">
<path fill-rule="evenodd" clip-rule="evenodd" d="M8.625 2.0625C5.00063 2.0625 2.0625 5.00063 2.0625 8.625C2.0625 12.2494 5.00063 15.1875 8.625 15.1875C12.2494 15.1875 15.1875 12.2494 15.1875 8.625C15.1875 5.00063 12.2494 2.0625 8.625 2.0625ZM0.9375 8.625C0.9375 4.37931 4.37931 0.9375 8.625 0.9375C12.8707 0.9375 16.3125 4.37931 16.3125 8.625C16.3125 12.8707 12.8707 16.3125 8.625 16.3125C4.37931 16.3125 0.9375 12.8707 0.9375 8.625ZM14.6023 14.6023C14.8219 14.3826 15.1781 14.3826 15.3977 14.6023L16.8977 16.1023C17.1174 16.3219 17.1174 16.6781 16.8977 16.8977C16.6781 17.1174 16.3219 17.1174 16.1023 16.8977L14.6023 15.3977C14.3826 15.1781 14.3826 14.8219 14.6023 14.6023Z" fill="#AAA286"/>
</g>
<defs>
<clipPath id="clip0_619_8115">
<rect width="18" height="18" fill="white"/>
</clipPath>
</defs>
</svg>
